<?xml version="1.0" encoding="UTF-8"?>
<!DOCTYPE svg PUBLIC "-//W3C//DTD SVG 1.1//EN" "http://www.w3.org/Graphics/SVG/1.1/DTD/svg11.dtd">
<!-- Creator: CorelDRAW X7 -->
<svg xmlns="http://www.w3.org/2000/svg" xml:space="preserve" width="1.66666in" height="1.66666in" version="1.1" style="shape-rendering:geometricPrecision; text-rendering:geometricPrecision; image-rendering:optimizeQuality; fill-rule:evenodd; clip-rule:evenodd"
viewBox="0 0 1667 1667"
 xmlns:xlink="http://www.w3.org/1999/xlink">
 <defs>
  <style type="text/css">
   <![CDATA[
    .fil5 {fill:none}
    .fil0 {fill:black}
    .fil4 {fill:#68B0FB}
    .fil2 {fill:#E6E9EE}
    .fil3 {fill:#FA6067}
    .fil1 {fill:#FCB860}
   ]]>
  </style>
   <clipPath id="id0">
    <path d="M0 0l1667 0 0 1667 -1667 0 0 -1667z"/>
   </clipPath>
 </defs>
 <g id="Layer_x0020_1">
  <metadata id="CorelCorpID_0Corel-Layer"/>
  <g>
  </g>
  <g style="clip-path:url(#id0)">
   <g>
    <g id="_2799204053728">
     <path class="fil0" d="M167 105c0,55 -9,83 24,108 16,12 26,10 52,10 24,36 35,64 35,111 0,47 -11,75 -35,111 -26,0 -36,-3 -52,10 -32,24 -24,50 -24,101 -49,0 -83,38 -83,76l0 292c0,19 12,50 31,55l0 7c-11,3 -16,8 -23,15 -20,18 -9,2 -29,27 -12,16 -10,9 -25,34 -45,72 -37,121 -37,205 0,55 35,124 71,161 37,36 108,71 161,71l101 0c0,59 -12,111 27,111 27,0 52,-48 84,-69 14,10 25,24 39,37 11,11 25,32 44,32 39,0 28,-52 28,-111l1061 0c22,0 49,-27 49,-48 0,-55 8,-84 -24,-108 -16,-13 -27,-10 -53,-10 -9,-14 -20,-28 -25,-47 -12,-40 -12,-88 0,-128 5,-19 16,-33 25,-47 26,0 37,2 53,-10 32,-24 24,-53 24,-108 0,-17 -15,-33 -26,-40 -17,-12 -35,-9 -61,-9 8,-35 3,-258 3,-312 0,-34 -27,-61 -53,-71 -27,-11 -85,-5 -120,-5 6,-9 36,-28 60,-75 38,-75 30,-104 30,-192 0,-52 -27,-106 -58,-144 -17,-21 -7,-12 -29,-29l-52 -35c-20,-11 -63,-25 -93,-25l-1051 0c-22,0 -49,27 -49,49z"/>
     <path class="fil1" d="M750 944l739 0c27,0 38,-10 38,-38l0 -257c0,-27 -11,-38 -38,-38l-323 0 0 73c0,44 -31,46 -54,23 -16,-16 -40,-45 -57,-55 -16,10 -40,38 -55,53 -23,23 -56,26 -56,-21l0 -73 -194 0 0 333z"/>
     <path class="fil2" d="M334 1333l0 -83c-16,0 -54,2 -67,-3 -16,-7 -22,-30 -8,-44 16,-17 101,-9 130,-9l971 0c23,0 45,-2 53,17 25,58 -108,39 -164,39 -231,0 -462,0 -693,0l0 83 966 0c-30,-54 -31,-169 0,-220 -29,-7 -818,-2 -869,-2 -62,0 -402,-6 -432,5 -25,10 -44,28 -51,57 -5,20 -5,84 2,103 22,67 85,57 162,57z"/>
     <path class="fil2" d="M334 327c0,39 -6,86 -23,116 31,5 556,2 633,2l0 -83 -489 0c-50,0 -55,-56 3,-56l753 0c52,0 51,56 0,56l-45 0 0 83c77,0 167,14 167,-94 0,-66 0,-128 -98,-128l-924 1c14,24 23,70 23,103z"/>
     <path class="fil3" d="M334 1444l0 -56c-98,0 -150,5 -197,-59 -35,-47 -37,-161 -3,-210 44,-65 95,-64 193,-64l1283 0 0 -55c-379,0 -758,0 -1138,0 -64,0 -224,-8 -276,8 -185,55 -162,304 -86,375 27,26 46,42 88,54 40,11 93,7 136,7z"/>
     <polygon class="fil2" points="361,944 694,944 694,611 347,611 361,611 "/>
     <path class="fil4" d="M223 167c338,0 677,0 1016,0 91,0 149,59 149,149l0 35c0,91 -58,149 -149,149l-73 0 0 56c92,0 155,8 220,-58 55,-55 58,-100 58,-182 0,-122 -85,-204 -205,-204l-1016 0 0 55z"/>
     <polygon class="fil3" points="556,1444 1610,1444 1610,1388 556,1388 "/>
     <path class="fil1" d="M306 944l0 -333c-197,0 -167,-30 -167,167 0,197 -30,166 167,166z"/>
     <polygon class="fil4" points="223,556 944,556 944,500 223,500 "/>
     <path class="fil3" d="M1000 611l0 15c15,-10 36,-42 55,-42 20,0 40,32 55,42l1 -264 -112 0 1 249z"/>
     <path class="fil1" d="M389 1499l0 15c16,-10 36,-42 56,-42 19,0 40,32 55,42l0 -264 -111 0 0 249z"/>
    </g>
   </g>
  </g>
  <polygon class="fil5" points="0,0 1667,0 1667,1667 0,1667 "/>
 </g>
</svg>
