<?xml version="1.0" encoding="UTF-8"?>
<!DOCTYPE svg PUBLIC "-//W3C//DTD SVG 1.1//EN" "http://www.w3.org/Graphics/SVG/1.1/DTD/svg11.dtd">
<!-- Creator: CorelDRAW X7 -->
<svg xmlns="http://www.w3.org/2000/svg" xml:space="preserve" width="1.66666in" height="1.66666in" version="1.1" style="shape-rendering:geometricPrecision; text-rendering:geometricPrecision; image-rendering:optimizeQuality; fill-rule:evenodd; clip-rule:evenodd"
viewBox="0 0 1667 1667"
 xmlns:xlink="http://www.w3.org/1999/xlink">
 <defs>
  <style type="text/css">
   <![CDATA[
    .str0 {stroke:black;stroke-width:26.6654}
    .str1 {stroke:black;stroke-width:6.94488}
    .fil15 {fill:none}
    .fil3 {fill:black}
    .fil2 {fill:black}
    .fil12 {fill:#384848}
    .fil6 {fill:#3D5858}
    .fil1 {fill:#9FEDB9}
    .fil8 {fill:#C46934}
    .fil5 {fill:#DD8858}
    .fil13 {fill:#FC4755}
    .fil7 {fill:#FEC164}
    .fil0 {fill:#FEE4C2}
    .fil10 {fill:#FEE4C3}
    .fil4 {fill:#FEF2DD}
    .fil9 {fill:#FF646F}
    .fil14 {fill:#FF9A00}
    .fil11 {fill:#FFA812}
   ]]>
  </style>
   <clipPath id="id0">
    <path d="M0 0l1667 0 0 1667 -1667 0 0 -1667z"/>
   </clipPath>
 </defs>
 <g id="Layer_x0020_1">
  <metadata id="CorelCorpID_0Corel-Layer"/>
  <g>
  </g>
  <g style="clip-path:url(#id0)">
   <g>
    <g id="_2284838904048">
     <g>
      <rect class="fil0 str0" x="50" y="1074" width="1474" height="106" rx="13" ry="13"/>
      <rect class="fil0 str0" x="50" y="155" width="1474" height="106" rx="13" ry="13"/>
      <rect class="fil1 str0" x="86" y="261" width="1401" height="813"/>
      <rect class="fil2 str1" x="869" y="373" width="499.108" height="46.2774" rx="13" ry="13"/>
      <rect class="fil2 str1" x="869" y="568" width="499.108" height="46.2774" rx="13" ry="13"/>
      <rect class="fil2 str1" x="869" y="750" width="249.556" height="46.2774" rx="7" ry="13"/>
     </g>
     <path class="fil3" d="M159 1242c40,-5 16,-36 36,-95 24,-68 75,-98 143,-112 35,-6 74,-17 108,-21 45,56 32,185 140,172 17,-2 16,2 26,12 4,4 17,15 19,19 6,11 -15,107 -19,127l-8 49c-4,16 1,7 -9,14l-220 0c0,-27 0,-53 0,-79 0,-24 3,-50 -25,-50 -41,0 -15,68 -24,128l-153 1c-9,-53 25,-106 -17,-116 -27,-3 -29,19 -29,44 0,24 -3,42 -3,70 -45,0 -84,-1 -104,43 -2,6 -4,17 -5,32l0 59c2,18 5,33 10,41 22,36 55,36 111,36l1332 0c41,0 111,5 140,-8 32,-14 40,-38 42,-64l0 -43 0 -4c0,-38 -3,-76 -54,-89 -32,-8 -107,-3 -147,-3 0,-32 3,-373 -2,-388 -4,-8 -57,-60 -65,-66 30,-62 -22,-100 -54,-131 -18,-19 -30,-36 -57,-45 -50,-18 -114,22 -102,93 2,15 8,23 17,33 10,12 14,17 24,27 43,43 61,70 114,65 14,-1 11,-4 23,-6l44 42c8,8 7,6 7,21l0 355 -96 0 -8 -104c-12,-84 8,-189 -81,-261 -53,-43 -89,-46 -164,-62 -64,-14 -126,-25 -188,-39l0 -80c37,-10 109,-106 109,-176 82,-7 61,-112 61,-169l-1 -172 -12 -49c-2,-14 3,-34 3,-54 0,-46 7,-97 -73,-99 -77,-2 -157,0 -234,0 -127,0 -189,-7 -269,76 -71,74 -53,191 -53,295 0,64 -20,165 61,172 1,63 54,147 108,176 0,77 9,80 -17,84l-259 55c-94,33 -149,115 -149,212 0,22 2,31 23,32z"/>
     <path class="fil3" d="M94 1405l24 0 8 -104c13,-84 -8,-189 81,-261 54,-43 89,-46 164,-62 64,-14 126,-25 188,-39l0 -32 150 0 0 533 -615 0 0 -35z"/>
     <path class="fil4" d="M830 824c16,-27 65,-52 74,-150 4,-45 5,-177 -1,-217l-2 -48c-64,11 -346,-1 -365,6 -39,14 19,74 -95,124 0,17 -4,78 4,88 16,20 51,-11 55,37 3,31 7,49 19,75 29,63 92,106 163,117 44,7 133,-7 148,-32z"/>
     <path class="fil5" d="M1521 1565c9,-32 5,-71 5,-106l-1445 -1c-25,3 -19,36 -18,78 1,37 23,29 71,29l1387 0z"/>
     <path class="fil6" d="M173 1407l153 -1c9,-60 -17,-128 24,-128 28,0 25,26 25,50 0,26 0,52 0,79l220 0c10,-7 5,2 9,-14l8 -49c4,-20 25,-116 19,-127 -2,-4 -15,-15 -19,-19 -10,-10 -9,-14 -26,-12 -108,13 -95,-116 -140,-172 -34,4 -73,15 -108,21 -68,14 -119,44 -143,112 -28,80 -36,177 -22,260z"/>
     <path class="fil6" d="M791 1220l31 187 226 -1c8,-63 -18,-132 27,-128 17,2 21,14 21,31l0 98 155 -1c-2,-53 -7,-105 -10,-158 -4,-56 -3,-93 -30,-135 -19,-30 -51,-58 -96,-70 -37,-11 -101,-24 -140,-29 -5,17 -49,128 -58,140 -11,16 -37,34 -65,34 -25,-1 -20,-10 -35,6 -10,10 -16,16 -26,26z"/>
     <path class="fil7" d="M869 365c15,-33 21,-27 21,-78 0,-32 0,-64 0,-96 -62,0 -123,1 -185,0 -58,0 -121,-7 -170,16 -115,55 -94,174 -94,279 37,-11 22,-64 45,-92 29,-34 53,-29 107,-29 90,0 186,3 276,0z"/>
     <path class="fil4" d="M814 887c-38,9 -57,20 -103,20 -47,-1 -64,-13 -101,-20 0,42 -6,91 13,124 15,25 47,50 88,50 44,0 74,-25 89,-50 19,-34 14,-82 14,-124z"/>
     <path class="fil8" d="M1516 1565c97,2 86,7 86,-74 0,-19 -2,-32 -18,-36 -20,-5 -980,-1 -1077,-1 -48,0 -415,-7 -426,4l1439 1c0,35 5,74 -4,106z"/>
     <path class="fil9" d="M652 1407l118 0c3,-16 -22,-151 -27,-171l-63 1c-5,25 -30,151 -28,170z"/>
     <path class="fil10" d="M825 824c32,-12 68,-59 84,-96 11,-28 9,-41 14,-70 7,-40 39,-9 57,-35 6,-19 2,-58 2,-80 -3,-10 -44,-13 -69,-56 -4,-8 -9,-23 -16,-30 6,40 6,172 2,217 -9,98 -57,123 -74,150z"/>
     <path class="fil11" d="M866 365c128,-18 106,-162 100,-169 -8,-8 -15,-6 -37,-6 -14,0 -28,0 -42,1 0,32 0,64 0,96 0,51 -5,45 -21,78z"/>
     <path class="fil12" d="M495 1003c16,38 30,82 47,117 20,40 62,8 94,-14l13 -12c-37,-12 -75,-57 -84,-105l-70 14z"/>
     <path class="fil12" d="M775 1095l49 34c54,34 61,-18 79,-65 8,-19 19,-43 25,-61l-70 -15c-9,50 -46,93 -83,107z"/>
     <path class="fil13" d="M1234 822c-13,6 -24,21 -16,40 4,10 50,54 61,64 44,45 70,0 60,-24 -4,-9 -24,-27 -31,-34 -13,-13 -45,-58 -74,-46z"/>
     <path class="fil13" d="M642 1159c28,38 38,30 101,30 17,0 33,-21 39,-31 -20,-11 -51,-35 -71,-43 -19,9 -51,32 -69,44z"/>
     <path class="fil14" d="M945 393l0 6 0 25c0,29 17,54 38,63l0 -130c-5,3 -36,29 -38,36z"/>
    </g>
   </g>
  </g>
  <polygon class="fil15" points="0,0 1667,0 1667,1667 0,1667 "/>
 </g>
</svg>
